<?xml version="1.0" encoding="utf-8"?>
<!-- Generator: Adobe Illustrator 21.0.0, SVG Export Plug-In . SVG Version: 6.00 Build 0)  -->
<svg version="1.1" id="图层_1" xmlns="http://www.w3.org/2000/svg" xmlns:xlink="http://www.w3.org/1999/xlink" x="0px" y="0px"
	 viewBox="0 0 20 20" style="enable-background:new 0 0 20 20;" xml:space="preserve">
<style type="text/css">
	.st0{fill:#FFFFFF;stroke:#FFFFFF;stroke-width:1.125;stroke-miterlimit:10;}
	.st1{fill:#FFFAFA;stroke:#FFFFFF;stroke-width:1.125;stroke-miterlimit:10;}
</style>
<g>
	<path class="st0" d="M17.7,18.4H2.3c-0.4,0-0.7-0.3-0.7-0.7V2.3c0-0.4,0.3-0.7,0.7-0.7h15.5c0.4,0,0.7,0.3,0.7,0.7v15.5
		C18.4,18.1,18.1,18.4,17.7,18.4z"/>
	<path class="st1" d="M17.7,19H2.3C1.6,19,1,18.4,1,17.7V2.3C1,1.6,1.6,1,2.3,1h15.5C18.4,1,19,1.6,19,2.3v15.5
		C19,18.4,18.4,19,17.7,19z M2.3,2.1c-0.1,0-0.1,0.1-0.1,0.1v15.5c0,0.1,0.1,0.1,0.1,0.1h15.5c0.1,0,0.1-0.1,0.1-0.1V2.3
		c0-0.1-0.1-0.1-0.1-0.1H2.3z"/>
</g>
</svg>
